<?xml version="1.0" encoding="UTF-8" standalone="no"?>
<svg width="13px" height="12px" viewBox="0 0 13 12" version="1.1" xmlns="http://www.w3.org/2000/svg" xmlns:xlink="http://www.w3.org/1999/xlink" xmlns:sketch="http://www.bohemiancoding.com/sketch/ns">
    <!-- Generator: Sketch 3.4.4 (17249) - http://www.bohemiancoding.com/sketch -->
    <title></title>
    <desc>Created with Sketch.</desc>
    <defs></defs>
    <g id="Page-1" stroke="none" stroke-width="1" fill="none" fill-rule="evenodd" sketch:type="MSPage">
        <path d="M11.9375,1 C12.6458369,1.72917031 13,2.61978641 13,3.671875 C13,4.72396359 12.6458369,5.61457969 11.9375,6.34375 L6.5,12 L1.0625,6.34375 C0.354163125,5.61457969 0,4.72396359 0,3.671875 C0,2.61978641 0.354163125,1.72917031 1.0625,1 C1.68750312,0.33333 2.45312047,0 3.359375,0 C4.26562953,0 5.03124688,0.33333 5.65625,1 L6.5,1.875 L7.375,1 C8.00000312,0.33333 8.76041219,0 9.65625,0 C10.5520878,0 11.3124969,0.33333 11.9375,1 L11.9375,1 Z" id="" fill="#D0011B" sketch:type="MSShapeGroup"></path>
    </g>
</svg>