<?xml version="1.0" encoding="UTF-8" standalone="no"?>
<svg width="50px" height="55px" viewBox="0 0 50 55" version="1.1" xmlns="http://www.w3.org/2000/svg" xmlns:xlink="http://www.w3.org/1999/xlink" xmlns:sketch="http://www.bohemiancoding.com/sketch/ns">
    <!-- Generator: Sketch 3.4.4 (17249) - http://www.bohemiancoding.com/sketch -->
    <title></title>
    <desc>Created with Sketch.</desc>
    <defs></defs>
    <g id="Welcome" stroke="none" stroke-width="1" fill="none" fill-rule="evenodd" sketch:type="MSPage">
        <g id="Desktop" sketch:type="MSArtboardGroup" transform="translate(-327.000000, -832.000000)" fill="#F69B05">
            <path d="M365.411458,856.21875 C366.192712,857.000004 366.583333,857.954855 366.583333,859.083333 C366.583333,860.472229 366.019103,861.60069 364.890625,862.46875 C360.46352,865.767378 355.862871,869.15276 351.088542,872.625 L346.140625,868.458333 C345.619789,868.024303 345.185766,867.980901 344.838542,868.328125 C344.491318,868.675349 344.53472,869.109372 344.96875,869.630208 L348.744792,874.1875 L333.901042,885.125 C332.85937,885.819448 331.947921,886.166667 331.166667,886.166667 C329.951383,886.166667 328.953129,885.776046 328.171875,884.994792 C327.390621,884.213538 327,883.215284 327,882 C327,881.13194 327.217012,880.350698 327.651042,879.65625 C327.651042,879.569444 327.846352,879.222225 328.236979,878.614583 C328.627606,878.006941 329.235239,877.073791 330.059896,875.815104 C330.884553,874.556417 331.644094,873.362853 332.338542,872.234375 L334.942708,874.447917 C335.463544,874.881947 335.897568,874.925349 336.244792,874.578125 C336.592016,874.230901 336.548613,873.796878 336.114583,873.276042 L333.510417,870.28125 C334.291671,869.065966 336.006063,866.331618 338.653646,862.078125 C341.301229,857.824632 343.232633,854.743065 344.447917,852.833333 L349.135417,856.739583 C349.656253,857.173613 350.090276,857.217016 350.4375,856.869792 C350.784724,856.522568 350.741322,856.088544 350.307292,855.567708 L346.010417,850.359375 L348.354167,846.583333 C349.222227,845.194437 350.437492,844.5 352,844.5 C353.215284,844.5 354.25694,844.934023 355.125,845.802083 L365.28125,856.088542 L365.411458,856.21875 Z M377,843.848958 L363.588542,851.53125 L359.942708,847.755208 L369.057292,832 L372.703125,834.083333 L366.192708,845.151042 L374.916667,840.203125 L377,843.848958 Z" id="" sketch:type="MSShapeGroup"></path>
        </g>
    </g>
</svg>