<?xml version="1.0" encoding="UTF-8" standalone="no"?>
<svg width="50px" height="50px" viewBox="0 0 50 50" version="1.1" xmlns="http://www.w3.org/2000/svg" xmlns:xlink="http://www.w3.org/1999/xlink" xmlns:sketch="http://www.bohemiancoding.com/sketch/ns">
    <!-- Generator: Sketch 3.4.4 (17249) - http://www.bohemiancoding.com/sketch -->
    <title></title>
    <desc>Created with Sketch.</desc>
    <defs></defs>
    <g id="Welcome" stroke="none" stroke-width="1" fill="none" fill-rule="evenodd" sketch:type="MSPage">
        <g id="Desktop" sketch:type="MSArtboardGroup" transform="translate(-327.000000, -913.000000)" fill="#444444">
            <path d="M327,955.857143 L327,952.285714 L357.357143,952.285714 L357.357143,955.857143 L327,955.857143 Z M368.071429,955.857143 L368.071429,952.285714 L377,952.285714 L377,955.857143 L368.071429,955.857143 Z M366.285714,959.428571 C366.285714,960.470243 365.950896,961.32589 365.28125,961.995536 C364.611604,962.665182 363.755958,963 362.714286,963 C361.672614,963 360.816968,962.665182 360.147321,961.995536 C359.477675,961.32589 359.142857,960.470243 359.142857,959.428571 L359.142857,948.714286 C359.142857,947.672614 359.477675,946.816968 360.147321,946.147321 C360.816968,945.477675 361.672614,945.142857 362.714286,945.142857 C363.755958,945.142857 364.611604,945.477675 365.28125,946.147321 C365.950896,946.816968 366.285714,947.672614 366.285714,948.714286 L366.285714,959.428571 Z M327,939.785714 L327,936.214286 L335.928571,936.214286 L335.928571,939.785714 L327,939.785714 Z M346.642857,939.785714 L346.642857,936.214286 L377,936.214286 L377,939.785714 L346.642857,939.785714 Z M344.857143,943.357143 C344.857143,944.398815 344.522325,945.254461 343.852679,945.924107 C343.183032,946.593753 342.327386,946.928571 341.285714,946.928571 C340.244042,946.928571 339.388396,946.593753 338.71875,945.924107 C338.049104,945.254461 337.714286,944.398815 337.714286,943.357143 L337.714286,932.642857 C337.714286,931.601185 338.049104,930.745539 338.71875,930.075893 C339.388396,929.406247 340.244042,929.071429 341.285714,929.071429 C342.327386,929.071429 343.183032,929.406247 343.852679,930.075893 C344.522325,930.745539 344.857143,931.601185 344.857143,932.642857 L344.857143,943.357143 Z M327,923.714286 L327,920.142857 L357.357143,920.142857 L357.357143,923.714286 L327,923.714286 Z M368.071429,923.714286 L368.071429,920.142857 L377,920.142857 L377,923.714286 L368.071429,923.714286 Z M366.285714,927.285714 C366.285714,928.327386 365.950896,929.183032 365.28125,929.852679 C364.611604,930.522325 363.755958,930.857143 362.714286,930.857143 C361.672614,930.857143 360.816968,930.522325 360.147321,929.852679 C359.477675,929.183032 359.142857,928.327386 359.142857,927.285714 L359.142857,916.571429 C359.142857,915.529757 359.477675,914.67411 360.147321,914.004464 C360.816968,913.334818 361.672614,913 362.714286,913 C363.755958,913 364.611604,913.334818 365.28125,914.004464 C365.950896,914.67411 366.285714,915.529757 366.285714,916.571429 L366.285714,927.285714 Z" id="" sketch:type="MSShapeGroup"></path>
        </g>
    </g>
</svg>